<?xml version="1.0" encoding="utf-8"?>
<!-- Generator: Adobe Illustrator 23.0.3, SVG Export Plug-In . SVG Version: 6.00 Build 0)  -->
<svg version="1.2" baseProfile="tiny" id="Слой_1"
	 xmlns="http://www.w3.org/2000/svg" xmlns:xlink="http://www.w3.org/1999/xlink" x="0px" y="0px" viewBox="0 0 100 100"
	 xml:space="preserve">
<path fill="#3C3C3C" d="M78.3,49.3c-0.1,5.2-1,10.3-3.2,15.1c-0.9,2-2,3.8-3.6,5.5c0-0.8,0.3-1.2,0.5-1.7c3.1-6.8,5.3-13.8,4.9-21.4
	c-0.7-13.4-6.9-23.4-19.3-29c-7.2-3.3-14.1-2-20.5,2.2C26,27.5,21.3,38.1,22.3,51.4c0.4,5.9,2.3,11.5,4.8,16.8
	c0.2,0.5,0.4,0.9,0.7,1.5c-3.3-1.9-6.6-11.5-6.9-20.4c0-0.8,0-1.6,0-2.4c-0.1,0.8-0.2,1.6-0.4,2.4c-1.8,5-5.8,6.7-10.7,6.9
	c-3.1,0.2-3.1,0.1-2.8-3c0.1-1,0.3-2.1,0.6-3.1c1.3-4.2,4.3-6.4,8.6-6.9c1.3-0.2,2.7-0.4,3.9-0.2c1.1,0.1,1.2-0.4,1.3-1.1
	c0.3-2.7,1-5.4,2-8c3.3-8.8,9-15.2,18-18.5c11.6-4.3,23.8,1.6,29.6,9.3c3.8,5,6,10.8,6.9,17c0.1,1,0.3,1.5,1.6,1.4
	c1.5-0.2,3,0,4.4,0.3c5.1,1,8,4.2,8.4,9.5c0,0.2,0,0.4,0,0.6c0.3,3.1,0.7,2.7-2.6,2.8c-1.4,0-2.7-0.2-4-0.6c-3.4-0.9-5.7-3-6.9-6.4
	c-0.3-0.8-0.2-1.6-0.4-2.4C78.3,47.7,78.3,48.5,78.3,49.3z M9.8,55c0.7,0.1,1.5-0.1,2.3-0.3c5.1-1,7.6-4.6,7.8-9.6
	c0-0.4,0.2-0.9-0.6-0.9c-3,0.1-6,0.4-8.3,2.6c-2.2,2.1-2.7,4.8-3,7.6c0,0.5,0.1,0.7,0.6,0.6C8.9,55,9.2,55,9.8,55z M88.9,55
	c2.4,0.1,2.4,0.1,2.1-1.8c0-0.3-0.1-0.6-0.1-0.8c-0.5-2.8-1.7-5.3-4.2-6.7c-2.1-1.2-4.4-1.5-6.8-1.5c-0.6,0-0.6,0.3-0.6,0.8
	c0.1,3.6,1.2,6.7,4.5,8.6C85.5,54.6,87.5,54.9,88.9,55z"/>
<path fill="#444444" d="M49.5,45.7c-0.2-0.1-0.3-0.3-0.5-0.4c-1.8-1.8-3.6-3.6-5.4-5.3c-0.4-0.4-0.4-0.7,0-1.1
	c1.8-1.8,3.6-3.5,5.3-5.3c0.3-0.3,0.6-0.5,1-0.1c1.8,1.8,3.6,3.6,5.4,5.4c0.3,0.3,0.5,0.5,0.1,0.9c-1.9,1.9-3.7,3.7-5.6,5.6
	C49.8,45.5,49.7,45.6,49.5,45.7z M49.6,36.6c-0.8,0.8-1.5,1.6-2.3,2.3c-0.4,0.4-0.4,0.6,0,1.1c2.1,2.4,2.7,2.4,4.7,0
	c0.3-0.4,0.4-0.6,0-1C51.1,38.2,50.4,37.4,49.6,36.6z"/>
<path fill="#BABABA" d="M44.9,32.4c-0.1,1.2,0.1,2.4-0.8,3.4c-1.6,1.7-4.4,1.7-6.2-0.2c-1.9-1.9-2-6-0.3-8c0.1-0.1,0.3-0.3,0.5-0.3
	c2-0.7,6,1.2,6.7,3.3C44.9,31.1,44.8,31.8,44.9,32.4z M40.6,34.2c0.8,0,1.9-1.1,1.9-1.9c0-0.8-1.1-1.9-1.9-1.9c-0.8,0-2,1-2,1.9
	C38.6,33,39.7,34.2,40.6,34.2z"/>
<path fill="#BABABA" d="M54.3,32.1c-0.3-2.5,1.6-3.8,3.3-4.4c0.9-0.3,1.9-0.3,2.8-0.6c0.9-0.2,1.3,0.2,1.6,0.9
	c0.6,1.5,0.9,3,0.7,4.7c-0.3,2.6-2.8,4.6-5.9,4.3c-1.1-0.1-1.7-1-2.1-1.9C54.3,34.2,54.2,33.1,54.3,32.1z M60.5,32.3
	c0-0.8-1-2-1.9-2c-0.8,0-1.9,1-1.9,1.8c-0.1,0.8,1,2,1.8,2C59.3,34.2,60.4,33.1,60.5,32.3z"/>
<path fill="#434343" d="M43,74.7c-0.7,2.3,0.5,4.3,2.6,5.9c0.3,0.2,0.5,0.5,0.8,0.8c0.4,0.4,0.7,0.9,0.3,1.3
	c-0.5,0.5-0.9,0.2-1.3-0.2c-0.8-0.8-1.6-1.6-2.4-2.4c-0.5-0.5-0.8-0.5-1.2,0c-0.7,0.8-1.5,1.5-2.2,2.2c-0.4,0.4-0.9,0.6-1.3,0.2
	c-0.4-0.4-0.2-0.9,0.2-1.3c0.1-0.1,0.3-0.3,0.4-0.4c2.1-1.5,2.8-3.5,2.5-6c-0.2-1.2,0-2.5,0-3.7c0-0.5,0.1-1.1,0.8-1.2
	c0.7,0,0.9,0.6,0.9,1.2C43,72.2,43,73.2,43,74.7z"/>
<path fill="#434343" d="M57.4,74.8C56.7,77,57.9,79,60,80.6c0.3,0.2,0.5,0.5,0.8,0.8c0.4,0.4,0.8,0.9,0.3,1.4
	c-0.5,0.4-1,0.1-1.3-0.3c-0.8-0.8-1.6-1.6-2.4-2.4c-0.4-0.5-0.7-0.4-1.1,0c-0.7,0.8-1.5,1.5-2.2,2.2c-0.4,0.4-0.8,0.6-1.3,0.3
	c-0.5-0.4-0.2-0.9,0.2-1.3c0.1-0.1,0.2-0.2,0.3-0.3c2.2-1.5,3-3.7,2.6-6.3c-0.2-1.2,0-2.4,0-3.6c0-0.5,0.1-1.1,0.8-1.1
	c0.7,0,0.8,0.5,0.8,1.1C57.4,72.1,57.4,73.2,57.4,74.8z"/>
<path fill="#C2C2C2" d="M20.4,49.3c0.2-0.8,0.3-1.6,0.4-2.4c0,0.8,0,1.6,0,2.4C20.7,49.3,20.5,49.3,20.4,49.3z"/>
<path fill="#C2C2C2" d="M78.3,49.3c0-0.8,0-1.6,0-2.5c0.2,0.8,0.1,1.7,0.4,2.4C78.6,49.3,78.4,49.3,78.3,49.3z"/>
<path fill="#3C3C3C" d="M27.8,70C27.8,70,27.8,70,27.8,70c0,0.1-0.1,0.1-0.1,0.1C27.7,70,27.7,70,27.8,70C27.7,70,27.8,70,27.8,70z"
	/>
<path fill="#3C3C3C" d="M71.4,70.1C71.4,70.1,71.4,70.1,71.4,70.1c0-0.1,0-0.1,0-0.1C71.4,70,71.5,70,71.4,70.1
	C71.5,70,71.4,70.1,71.4,70.1z"/>
<path fill="#FBFBFB" d="M9.8,55c-0.5,0-0.9,0-1.3,0c-0.5,0-0.6-0.2-0.6-0.6c0.3-2.8,0.8-5.5,3-7.6c2.4-2.2,5.3-2.5,8.3-2.6
	c0.7,0,0.6,0.5,0.6,0.9c-0.1,5-2.6,8.6-7.8,9.6C11.3,54.9,10.5,55.1,9.8,55z"/>
<path fill="#FBFBFB" d="M88.9,55c-1.4-0.1-3.4-0.4-5.2-1.4c-3.3-1.9-4.4-5-4.5-8.6c0-0.4,0-0.8,0.6-0.8c2.4,0,4.7,0.3,6.8,1.5
	c2.6,1.5,3.8,3.9,4.2,6.7c0,0.3,0.1,0.6,0.1,0.8C91.3,55.1,91.4,55.1,88.9,55z"/>
<path fill="#F3F3F3" d="M49.6,36.6c0.8,0.8,1.5,1.6,2.3,2.4c0.4,0.4,0.3,0.6,0,1c-2,2.5-2.6,2.5-4.7,0c-0.4-0.4-0.4-0.7,0-1.1
	C48,38.1,48.8,37.4,49.6,36.6z"/>
<path fill="#343434" d="M40.6,34.2c-0.8,0-1.9-1.1-1.9-2c0-0.9,1.2-1.9,2-1.9c0.8,0,1.8,1.1,1.9,1.9C42.5,33.1,41.4,34.2,40.6,34.2z
	"/>
<path fill="#343434" d="M60.5,32.3c0,0.9-1.2,1.9-2,1.9c-0.9-0.1-1.9-1.2-1.8-2c0.1-0.8,1.2-1.8,1.9-1.8
	C59.4,30.3,60.5,31.5,60.5,32.3z"/>
</svg>
