<?xml version="1.0" encoding="utf-8"?>
<!-- Generator: Adobe Illustrator 23.0.3, SVG Export Plug-In . SVG Version: 6.00 Build 0)  -->
<svg version="1.2" baseProfile="tiny" id="Слой_1"
	 xmlns="http://www.w3.org/2000/svg" xmlns:xlink="http://www.w3.org/1999/xlink" x="0px" y="0px" viewBox="0 0 100 100"
	 xml:space="preserve">
<path fill="#484848" d="M15.9,49c-1.6,4.2-2.5,8.6-3.3,13.1c-0.7,4.2-1.3,8.4-1.5,12.9c-0.6-1.2-0.7-2.2-0.7-3.2
	c-0.4-7.2,0.8-14.1,2.9-20.9c0.8-2.6,1.7-5.2,2.9-7.6c0.4-0.7,0.1-1.3-0.2-1.9c-2.4-4.5-4.7-9.1-6-14.1c-0.8-3-1.2-6.1-0.3-9.1
	c1.6-5.1,7.5-8.5,13.2-7.8c5.8,0.8,10.6,3.7,14.8,7.6c1.6,1.5,2.8,1.9,5,1.3c5.9-1.5,11.8-1.3,17.6,0.4c0.8,0.2,1.3,0,1.9-0.5
	c4.1-4,8.7-7.2,14.3-8.5c3.8-0.9,7.4-0.3,10.7,1.9c3.8,2.5,5.5,6.9,4.6,11.9c-1,5.8-3.5,11-6.3,16.1c-0.7,1.2-0.7,2.2-0.2,3.5
	c3.7,8.8,5.8,17.9,5.4,27.5c0,1-0.1,2-0.7,3.3c-0.2-3.3-0.6-6.3-1-9.3c-1.3-9.3-3.6-18.4-8.2-26.6c-3.8-6.8-9-12.3-16.4-15.3
	c-4.3-1.8-8.9-2.3-13.5-2.3c-4.1,0-8.2,0.2-12.1,1.5c-1.7,0.6-3.4,1-4.9,2.2c-2.1,0.9-3.8,2.3-5.5,3.7C22.2,34.4,18.5,41.4,15.9,49z
	 M29.5,25c0.2,0.2,0.4,0.1,0.5,0c2-1.4,4.1-2.7,6.3-3.6c0.7-0.3,0.4-0.6,0-0.9c-0.9-0.7-1.7-1.3-2.6-1.9c-2.9-2.3-6-4.1-9.7-5.1
	c-2.3-0.6-4.6-0.4-6.8,0.5c-3.4,1.4-5.6,4.7-5.4,8.2c0.5,6,3.2,11.3,5.8,16.6c0.2,0.5,0.5,0.5,0.7,0c1.2-2.4,2.8-4.5,4.3-6.6
	c2-2.3,4.1-4.6,6.6-6.5C29.4,25.5,29.6,25.3,29.5,25z M78.3,32c0,0.3,0.2,0.6,0.4,0.9c1.3,1.7,2.5,3.5,3.6,5.4c0.5,0.8,0.7,1,1.2,0
	c2.3-4.5,4.4-9.1,5.3-14.2c1-5.4-1.9-9.8-7.3-10.8c-3.4-0.7-6.4,0.5-9.3,1.9c-2.6,1.2-4.8,3.2-7.1,4.9c-0.4,0.3-1,0.5-0.9,1
	c0.1,0.4,0.7,0.5,1.1,0.6c1.8,0.9,3.5,1.8,5.1,3c0.3,0.2,0.6,0.5,1,0.5c1.6,1.5,3.3,2.9,4.8,4.5C76.8,30.4,77.4,31.4,78.3,32z"/>
<path fill="#999999" d="M15.9,49c2.6-7.6,6.3-14.6,12.4-20c1.7-1.5,3.4-2.9,5.5-3.7c3.5,2.2,6.8,4.5,8.5,8.4c1.8,4,0.9,7.6-2.5,10.4
	c-5,4.3-10.8,5.9-17.3,5.4C20.4,49.2,18.1,48.9,15.9,49z M39.4,40.5c0-2.7-2.2-4.9-5-4.9c-2.7,0-5.1,2.1-5.2,4.8c0,2.6,2.3,4.9,5,5
	C36.9,45.3,39.3,43.1,39.4,40.5z"/>
<path fill="#999999" d="M61.8,27.8c6.4,0.1,13.5,5.1,15.6,10.7c1.3,3.5,0.6,6.6-2,9.2c-2.2,2.2-4.8,3.3-7.8,3.9
	c-2.2,0.4-4.1-0.5-5.7-1.9c-1.1-0.9-2.1-1.9-3-2.9c-0.8-0.9-1.4-1.9-1.6-3.1c-0.4-2.8-1.2-5.6-1-8.5c0.1-1.4,0.2-2.9,0.8-4.2
	C58,28.8,59.7,27.6,61.8,27.8z M65.6,45.8c2.7,0,5.2-2.3,5.2-4.9c0-2.6-2.4-4.8-5.2-4.8c-2.8,0-5.1,2.2-5.1,4.9
	C60.6,43.6,62.9,45.8,65.6,45.8z"/>
<path fill="#484848" d="M50.4,61.8c-1.9,0.1-3.7-0.2-5.3-1.3c-0.4-0.3-0.8-0.6-1.1-1.1c-0.3-0.5-0.4-0.9,0.1-1.3
	c0.5-0.4,0.9-0.2,1.2,0.3c0.8,1.1,1.9,1.4,3.1,1.7c0.8,0.2,1.3,0,1.2-0.9c0-0.1,0-0.2,0-0.4c0.3-2-0.3-3.4-2.3-4.3
	c-1.5-0.7-2.3-1.8-2.4-3.6c0-1.2,0.4-2.1,1.4-2.6c1.1-0.6,2.2-0.7,3.3,0c0.6,0.4,1.1,0.5,1.8,0.1c1.2-0.7,2.8-0.6,3.7,0.2
	c1,0.8,1.2,2.2,0.7,3.6c-0.5,1.6-2,2.2-3.1,3c-0.9,0.6-1.4,1.3-1.3,2.3c0,0.2,0,0.3,0,0.5c0,2.5,0.3,2.7,2.6,1.7
	c0.6-0.3,1.2-0.7,1.6-1.2c0.3-0.4,0.7-0.6,1.1-0.3c0.5,0.3,0.4,0.8,0.2,1.3c-0.6,1.1-1.6,1.5-2.7,1.9C53,61.7,51.7,61.9,50.4,61.8z"
	/>
<path fill="#484848" d="M46.8,78.5c-0.6,1.6-1.7,1.6-3,1.3c-0.6-0.2-1.3-0.1-1.9-0.1c-0.3,0-0.6,0.1-0.6,0.4c0,0.4,0.3,0.4,0.6,0.4
	c1,0.1,2,0.2,3,0.3c0.4,0.1,0.8,0.1,0.8,0.7c0,0.6-0.4,0.6-0.8,0.6c-0.9,0.1-1.8,0.2-2.7,0.3c-0.3,0-0.9,0-0.8,0.4
	c0,0.5,0.6,0.5,1,0.5c0.6,0,1.2-0.1,1.8-0.2c1.3-0.4,2.2-0.1,2.8,1.3c-1.4,0.7-3,1.1-4.6,1.5c-1.4,0.3-2.7,0.5-4.1,0.8
	c-0.7,0.1-1-0.1-1.3-0.8c-1.2-3-1.2-5.9,0-8.9c0.2-0.4,0.4-0.8,0.9-0.7C40.8,76.7,43.9,77.4,46.8,78.5z"/>
<path fill="#484848" d="M54.7,84.4c0.6-1.1,1.2-1.8,2.6-1.3c0.7,0.2,1.4,0.2,2.1,0.2c0.4,0,0.8,0,0.8-0.5c0-0.4-0.4-0.4-0.7-0.4
	c-0.9-0.1-1.9-0.2-2.9-0.3c-0.4,0-0.8-0.1-0.8-0.7c0-0.6,0.4-0.6,0.8-0.7c0.9-0.1,1.8-0.2,2.7-0.3c0.3,0,0.8,0.1,0.8-0.4
	c0-0.5-0.5-0.5-0.8-0.5c-0.5,0-1.1,0-1.6,0.1c-1.3,0.3-2.5,0.5-3.2-1.1c0.5-0.4,1.2-0.5,1.9-0.7c2.3-0.7,4.5-1.2,6.9-1.5
	c0.7-0.1,1.1,0.2,1.3,0.9c1.1,2.9,1.1,5.8,0,8.6c-0.2,0.5-0.4,0.9-1.1,0.9C62,86.7,56.4,85.3,54.7,84.4z"/>
<path fill="#484848" d="M50.8,83.8c-0.7,0-1.4,0-2.2,0c-1.3,0-2-0.8-2-2.4c0-1.5,0.7-2.4,2-2.4c1.3,0,2.6,0,4,0c1.5,0,2.1,0.6,2.2,2
	c0.1,1.7-0.3,3-2.4,2.7C51.8,83.7,51.3,83.8,50.8,83.8z"/>
<path fill="#FBFBFB" d="M71.3,25.2c-0.4,0-0.7-0.3-1-0.5c-1.6-1.2-3.3-2.1-5.1-3c-0.4-0.2-1-0.2-1.1-0.6c-0.1-0.5,0.5-0.7,0.9-1
	c2.3-1.7,4.5-3.6,7.1-4.9c2.9-1.4,6-2.5,9.3-1.9c5.4,1,8.4,5.5,7.3,10.8c-1,5-3,9.6-5.3,14.2c-0.5,1-0.8,0.8-1.2,0
	c-1.1-1.9-2.2-3.7-3.6-5.4c-0.2-0.3-0.4-0.5-0.4-0.9c1.7-1.3,2.4-3.1,2.2-5.2c-0.2-1.5-1-2.7-2.4-3.3C75.8,22.5,73.1,23.3,71.3,25.2
	z"/>
<path fill="#999999" d="M22.7,32.1c-1.5,2.1-3.1,4.3-4.3,6.6c-0.3,0.5-0.5,0.5-0.7,0c-2.6-5.3-5.3-10.6-5.8-16.6
	c-0.3-3.4,2-6.8,5.4-8.2c2.2-0.9,4.5-1.1,6.8-0.5c3.7,0.9,6.8,2.8,9.7,5.1c0.8,0.7,1.7,1.3,2.6,1.9c0.4,0.3,0.7,0.6,0,0.9
	C34.1,22.3,32,23.6,30,25c-0.2,0.1-0.3,0.2-0.5,0c-0.4-0.3-0.9-0.7-1.3-1c-3-2.1-7.2-0.8-7.9,2.5C19.8,28.9,20.7,30.8,22.7,32.1z"/>
<path fill="#FBFBFB" d="M22.7,32.1c-2-1.3-2.8-3.2-2.4-5.5c0.7-3.3,4.9-4.6,7.9-2.5c0.5,0.3,0.9,0.7,1.3,1c0.1,0.3-0.1,0.4-0.2,0.6
	C26.8,27.5,24.7,29.8,22.7,32.1z"/>
<path fill="#999999" d="M71.3,25.2c1.7-1.9,4.4-2.6,6.7-1.7c1.4,0.6,2.3,1.8,2.4,3.3c0.2,2.1-0.5,3.9-2.2,5.2
	c-0.9-0.6-1.5-1.5-2.2-2.3C74.6,28.1,72.9,26.7,71.3,25.2z"/>
<path fill="#F6F6F6" d="M39.4,40.5c0,2.6-2.4,4.8-5.1,4.8c-2.7,0-5-2.4-5-5c0-2.6,2.4-4.8,5.2-4.8C37.2,35.6,39.4,37.8,39.4,40.5z
	 M37.1,40.7c0-1.3-1.2-2.6-2.6-2.6c-1.4-0.1-2.8,1.2-2.8,2.6c0,1.4,1.2,2.5,2.6,2.6C35.8,43.3,37.1,42.1,37.1,40.7z"/>
<path fill="#F6F6F6" d="M65.6,45.8c-2.7,0-5-2.2-5.1-4.9c0-2.6,2.3-4.9,5.1-4.9c2.7,0,5.1,2.2,5.2,4.8
	C70.8,43.5,68.3,45.8,65.6,45.8z M65.5,43.6c1.4,0,2.7-1.2,2.7-2.5c0-1.3-1.3-2.6-2.7-2.6c-1.4,0-2.7,1.3-2.7,2.7
	C62.8,42.6,64,43.7,65.5,43.6z"/>
<path fill="#484848" d="M37.1,40.7c0,1.4-1.3,2.6-2.8,2.5c-1.4-0.1-2.6-1.2-2.6-2.6c0-1.4,1.4-2.6,2.8-2.6
	C35.9,38.1,37.1,39.4,37.1,40.7z"/>
<path fill="#484848" d="M65.5,43.6c-1.5,0-2.7-1.1-2.7-2.5c0-1.4,1.3-2.7,2.7-2.7c1.3,0,2.7,1.3,2.7,2.6
	C68.1,42.4,66.9,43.6,65.5,43.6z"/>
</svg>
