<?xml version="1.0" encoding="utf-8"?>
<!-- Generator: Adobe Illustrator 23.0.3, SVG Export Plug-In . SVG Version: 6.00 Build 0)  -->
<svg version="1.2" baseProfile="tiny" id="Слой_1"
	 xmlns="http://www.w3.org/2000/svg" xmlns:xlink="http://www.w3.org/1999/xlink" x="0px" y="0px" viewBox="0 0 100 100"
	 xml:space="preserve">
<path fill="#363636" d="M18.9,65.4c-0.4-3.4-0.2-6.8,0-10.1c0.4-5.7,1.4-11.3,3.7-16.6c1.4-3.3,3.3-6.3,5.9-8.9
	c0.6-0.6,0.5-1-0.1-1.4c-1.3-0.9-2.7-1.7-4.3-1.9c-1.3-0.2-2.4,0.5-3,1.7c-0.7,1.4-0.9,2.9-1,4.4c-0.2,3.1,0,6.1,0.3,9.2
	c0.1,1.3-0.1,1.6-1.5,1.6c-2.4,0.1-4.8-0.4-7.1-1.2c-2.7-0.9-5.3-2-7.5-3.9c-2.2-1.8-3-4-2-6.8c1.6-4.6,4.6-8.1,8.3-11
	c2.2-1.7,4.5-3,7-4.1c2.4-1.1,4.8-1,7.2,0c3.9,1.6,6.5,4.6,8.5,8.2c0.4,0.8,0.7,1,1.6,0.6c4.7-2.4,9.7-3.2,14.9-3.2
	c5.5,0,10.7,0.9,15.6,3.4c0.7,0.3,0.7-0.2,0.9-0.5c1.4-2.6,3.2-5,5.6-6.7c1.8-1.3,3.8-2.1,6-2.5c1.1-0.2,2.1,0,3.1,0.4
	c6.2,2.3,11.2,6.1,14.8,11.7c0.9,1.3,1.4,2.8,1.9,4.4c0.8,2.3,0.1,4.1-1.5,5.7c-1.6,1.6-3.5,2.7-5.6,3.5c-3,1.2-6,2.2-9.2,2.1
	c-1.7,0-1.9-0.2-1.8-1.9c0.3-3.6,0.6-7.2,0-10.8c-0.6-4.2-2.8-5.3-6.6-3.3c-0.1,0-0.1,0.1-0.2,0.1c-2.3,1.2-2.3,1.3-0.6,3.2
	c3.7,4.1,5.9,9,7.2,14.3c1.6,6.7,2.1,13.5,1.6,20.3c-0.4-0.4-0.3-0.9-0.3-1.3c0.1-2.9,0-5.8-0.3-8.7c-0.6-5.5-1.8-10.8-4.1-15.9
	c-0.7-1.6-1.4-3.2-2.8-4.4c-0.1,0-0.1-0.1-0.1-0.1c0-0.4-0.1-0.7-0.6-0.8c-0.1,0-0.1-0.1-0.1-0.1c0-0.4-0.1-0.7-0.6-0.8
	c-0.1-0.1-0.2-0.2-0.4-0.4c0-0.4-0.1-0.7-0.6-0.8c-0.6-0.4-1.1-0.9-1.5-1.5C69.7,30.1,69.4,30,69,30c-0.2-0.2-0.4-0.4-0.6-0.6
	c-0.1-0.4-0.4-0.6-0.8-0.6c-0.1,0-0.1-0.1-0.1-0.1c-0.1-0.5-0.5-0.6-0.8-0.8c-3.5-2.3-7.4-3.6-11.5-4.4c-0.7-0.1-1.6-0.7-2.4,0
	c-1.7,0.4-3.4,0.1-5.1,0c-0.7-0.8-1.5-0.2-2.3-0.1c-6,0.8-11.4,3.2-15.8,7.4c-4.4,4.3-7,9.7-8.5,15.6c-1.5,5.7-2,11.5-1.9,17.4
	C19.2,64.4,19.3,65,18.9,65.4z M18.2,35.6c0-1,0-1.9,0-2.8c0.1-2,0.3-4,1.3-5.7c0.9-1.5,2.1-2.4,4-2.4c2.6,0,4.7,0.9,6.4,2.7
	c0.2,0.2,0.3,0.7,0.8,0.4c1.3-0.6,1.6-1.2,0.8-2.5c-0.1-0.1-0.1-0.2-0.2-0.3c-1.3-2.6-3.2-4.6-5.7-6.1c-2.4-1.4-4.9-1.9-7.6-0.6
	c-3.5,1.7-6.7,3.8-9.4,6.6C6.5,27.3,4.8,29.9,4,33c-0.3,1.2-0.1,2.1,0.7,3c0.4,0.5,0.9,1,1.4,1.3c3.5,2.5,7.4,3.7,11.5,4.3
	c0.7,0.1,0.9-0.1,0.8-0.8C18.3,39.1,18.1,37.3,18.2,35.6z M76.3,24.7c1.9-0.2,3.3,0.9,4.2,2.8c0.5,1,0.8,2,0.9,3.1
	c0.4,3.4,0.3,6.7,0,10.1c-0.1,0.7,0.1,1,0.9,0.8c4.3-0.6,8.2-1.9,11.7-4.5c0.5-0.3,0.9-0.8,1.2-1.2c0.7-0.8,1-1.8,0.6-2.9
	c-0.5-1.4-1-2.9-1.8-4.2c-3-4.8-7.3-8-12.4-10.4c-2.3-1.1-4.4-0.9-6.6,0.1c-0.8,0.4-1.5,0.8-2.2,1.3c-2.2,1.5-3.6,3.7-4.9,6
	c-0.3,0.4-0.7,0.9,0,1.2c0.6,0.2,1,1.6,1.9,0.4C71.6,25.7,73.6,24.7,76.3,24.7z"/>
<path fill="#4D4D4D" d="M18.9,65.4c0.5-0.5,0.3-1,0.3-1.6C19,58,19.6,52.2,21,46.5c1.5-5.9,4.1-11.3,8.5-15.6
	c4.4-4.3,9.8-6.6,15.8-7.4c0.7-0.1,1.6-0.7,2.3,0.1c-1.3,0.2-2.6,0.3-3.9,0.5c-5.6,1.1-10.6,3.5-14.6,7.6c-3.1,3.2-5.2,7.1-6.7,11.3
	c-2.7,7.9-3.1,16-2.9,24.2c0,0.5,0.2,0.8,0.7,0.9c3.6,0.9,7,2.2,10.7,2.6c4.9,0.5,9.7,1.3,14.7,1.5c4.5,0.2,9,0,13.5-0.3
	c2.8-0.2,5.5-0.8,8.3-1c4.2-0.4,8.2-1.7,12.3-2.8c0.5-0.1,0.7-0.4,0.7-0.9c0-5.1,0.2-10.2-0.8-15.2c-0.5-3.4-1.3-6.7-2.5-10
	c-0.9-2.5-2.2-4.8-3.5-7.1c1.4,1.2,2.1,2.8,2.8,4.4c2.3,5.1,3.5,10.4,4.1,15.9c0.3,2.9,0.3,5.8,0.3,8.7c0,0.4-0.1,0.9,0.3,1.3
	c0.1,1.5,0,3.1-0.3,4.7c-0.3-1.6-1.2-1.1-2.1-0.8c-5.2,1.8-10.7,2.4-16.1,3.1c-4.3,0.5-8.6,0.9-13,0.8c-5.1-0.1-10.1-0.6-15.2-1.2
	c-4.8-0.6-9.3-1.7-13.9-3c-0.6-0.2-0.6-0.2-1.2,1.1C18.8,68.5,18.8,67,18.9,65.4z"/>
<path fill="#444444" d="M48.2,77.5c0.9-0.1,1.5,1,2.2,0.9c0.7-0.1,1.4-0.9,2.3-0.9c1.7,0,3,1.5,2.8,3.3c-0.3,2-1.6,3.4-3,4.5
	c-2.4,1.8-1.7,1.7-4,0.1c-1.5-1.1-2.6-2.4-3.1-4.2C44.9,79.3,46.3,77.5,48.2,77.5z M48.1,78.5c-1.2,0-2,1.4-1.6,2.7
	c0.6,1.8,2.2,2.9,3.5,4.1c0.2,0.2,0.4,0.3,0.6,0.1c1.5-1.3,3.3-2.4,3.8-4.6c0.2-1-0.3-1.9-1.2-2.2c-0.8-0.2-1.4,0.2-1.9,0.6
	c-0.7,0.6-1.3,0.5-1.9-0.1C49,78.7,48.6,78.5,48.1,78.5z"/>
<path fill="#444444" d="M51,75.9c-0.2,0.6,0.4,1.6-0.6,1.6c-0.9,0-0.6-1-0.6-1.6c0-0.6-0.3-1.6,0.5-1.6C51.3,74.2,50.7,75.3,51,75.9
	z"/>
<path fill="#FDFDFD" d="M79.6,52.1c1,5,0.8,10.1,0.8,15.2c0,0.5-0.2,0.8-0.7,0.9c-4.1,1.1-8.1,2.5-12.3,2.8c-2.8,0.2-5.5,0.8-8.3,1
	c-4.5,0.3-9,0.4-13.5,0.3c-4.9-0.2-9.8-1-14.7-1.5c-3.7-0.4-7.1-1.7-10.7-2.6c-0.5-0.1-0.6-0.4-0.7-0.9c-0.2-8.2,0.2-16.3,2.9-24.2
	c1.5-4.2,3.6-8.1,6.7-11.3c4-4.2,9-6.5,14.6-7.6c1.3-0.3,2.6-0.4,3.9-0.5c1.7,0,3.4,0.3,5.1,0c0.2,0.1,0.3,0.1,0.5,0.2
	c0.1,2.1,0.2,4.3,0.2,6.4c0.1,3.7,0.5,7.3,1.4,10.8c0.8,2.8,2,5.4,4.1,7.3c4.4,4.1,9.9,4.5,15.6,4.3C76.2,52.4,77.9,52.2,79.6,52.1z
	 M40.2,34.1c-5.7,0.2-11,3.2-12.1,9.3C27.9,44.8,28,46,29,47c1.9,1.9,4.1,2.9,6.8,2.4c3.9-0.7,7.2-2.8,10.2-5.2
	c2.8-2.2,2.5-6.2-0.3-8.4C44.1,34.7,42.3,34,40.2,34.1z M44.6,57.2c-0.1,0.8,0.5,1.3,1.1,1.7c1.4,0.9,3,1.1,4.7,1
	c1.5-0.1,3.1-0.3,4.3-1.4c0.4-0.3,1-0.9,0.5-1.3c-0.4-0.4-0.6,0.4-0.8,0.7c-1,1-2.4,1.5-3.7,1.2c-0.7-0.2-0.1-1.6-0.3-2.4
	c-0.2-1.1,0.3-1.6,1.3-2.1c1.8-0.9,3.6-1.9,4.3-4.1c0.3-0.8,0.1-1.4-0.4-2c-2.3-2.3-7.2-2.8-9.9-0.9c-2.2,1.6-2.3,1.8-0.8,4.3
	c0.8,1.5,2.4,2,3.8,2.8c0.4,0.3,1.1,0.3,1,1.1c-0.1,0.9,0,1.9,0,2.8c0,0.4-0.1,0.7-0.6,0.6c-1.4-0.3-2.9-0.4-3.7-1.8
	C45.1,57.4,45,57.1,44.6,57.2z"/>
<path fill="#D3D3D3" d="M79.6,52.1c-1.7,0.1-3.3,0.3-5,0.3c-5.6,0.2-11.1-0.3-15.6-4.3c-2.1-2-3.3-4.5-4.1-7.3
	c-1-3.5-1.4-7.1-1.4-10.8c0-2.1-0.1-4.3-0.2-6.4c2.3,0.3,4.6,0.8,6.9,1.5c2.6,0.8,5,2.3,7.4,3.6c0,0.1,0.1,0.1,0.1,0.1
	c0.1,0.4,0.5,0.5,0.8,0.6c0.2,0.2,0.4,0.4,0.6,0.6c0.1,0.4,0.5,0.5,0.8,0.6c0.4,0.6,0.9,1.1,1.5,1.5c0.1,0.4,0.2,0.7,0.6,0.8
	c0.1,0.1,0.2,0.2,0.4,0.4c0.1,0.4,0.2,0.7,0.6,0.8c0,0.1,0.1,0.1,0.1,0.1c0.1,0.3,0.2,0.7,0.6,0.8c0,0.1,0.1,0.1,0.1,0.1
	c1.3,2.3,2.6,4.6,3.5,7.1C78.3,45.4,79.1,48.7,79.6,52.1z M66.5,42.2c0-2.3-1.7-4.1-4-4.1c-2.4,0-4.2,1.7-4.2,4c0,2.3,1.7,4.1,4,4.1
	C64.7,46.3,66.5,44.6,66.5,42.2z"/>
<path fill="#FCFCFC" d="M18.2,35.6c-0.1,1.7,0.1,3.4,0.2,5.2c0,0.7-0.1,0.9-0.8,0.8c-4.2-0.6-8.1-1.8-11.5-4.3
	c-0.5-0.4-1-0.9-1.4-1.3c-0.8-0.9-1-1.8-0.7-3c0.9-3.1,2.5-5.7,4.7-7.9c2.7-2.8,5.9-4.9,9.4-6.6c2.7-1.3,5.2-0.9,7.6,0.6
	c2.5,1.5,4.4,3.5,5.7,6.1c0.1,0.1,0.1,0.2,0.2,0.3c0.8,1.2,0.5,1.8-0.8,2.5c-0.5,0.2-0.6-0.2-0.8-0.4c-1.7-1.9-3.8-2.8-6.4-2.7
	c-1.8,0-3.1,0.9-4,2.4c-1.1,1.8-1.2,3.7-1.3,5.7C18.2,33.7,18.2,34.6,18.2,35.6z"/>
<path fill="#D3D3D3" d="M76.3,24.7c-2.7,0-4.7,0.9-6.3,2.7c-1,1.1-1.3-0.2-1.9-0.4c-0.7-0.3-0.3-0.8,0-1.2c1.3-2.3,2.7-4.4,4.9-6
	c0.7-0.5,1.4-1,2.2-1.3c2.2-1.1,4.3-1.2,6.6-0.1c5.1,2.4,9.4,5.6,12.4,10.4c0.8,1.3,1.3,2.7,1.8,4.2c0.4,1.1,0.1,2.1-0.6,2.9
	c-0.4,0.4-0.8,0.9-1.2,1.2c-3.5,2.6-7.5,3.9-11.7,4.5c-0.8,0.1-0.9-0.1-0.9-0.8c0.3-3.4,0.4-6.7,0-10.1c-0.1-1.1-0.4-2.1-0.9-3.1
	C79.6,25.7,78.2,24.6,76.3,24.7z"/>
<path fill="#4D4D4D" d="M67.5,28.7c-2.4-1.3-4.7-2.7-7.4-3.6c-2.3-0.7-4.5-1.2-6.9-1.5c-0.2-0.1-0.3-0.1-0.5-0.2
	c0.8-0.7,1.7-0.1,2.4,0c4.1,0.7,8,2.1,11.5,4.4C67,28.1,67.4,28.2,67.5,28.7z"/>
<path fill="#4D4D4D" d="M68.4,29.4c-0.3-0.1-0.7-0.2-0.8-0.6C68,28.8,68.3,29,68.4,29.4z"/>
<path fill="#4D4D4D" d="M69.8,30.6c-0.3-0.1-0.7-0.2-0.8-0.6C69.4,30,69.7,30.1,69.8,30.6z"/>
<path fill="#4D4D4D" d="M71.8,32.8c-0.4-0.1-0.5-0.5-0.6-0.8C71.7,32.1,71.9,32.4,71.8,32.8z"/>
<path fill="#4D4D4D" d="M72.8,34c-0.4-0.1-0.5-0.4-0.6-0.8C72.6,33.3,72.8,33.6,72.8,34z"/>
<path fill="#4D4D4D" d="M73.5,34.9c-0.4-0.1-0.5-0.5-0.6-0.8C73.3,34.2,73.5,34.5,73.5,34.9z"/>
<path fill="#ECECEC" d="M48.1,78.5c0.5,0,0.9,0.2,1.2,0.6c0.6,0.6,1.2,0.7,1.9,0.1c0.5-0.4,1.1-0.9,1.9-0.6c0.9,0.3,1.4,1.2,1.2,2.2
	c-0.4,2.2-2.2,3.3-3.8,4.6c-0.2,0.2-0.5,0-0.6-0.1c-1.4-1.2-2.9-2.2-3.5-4.1C46,79.9,46.9,78.5,48.1,78.5z"/>
<path fill="#D5D5D5" d="M40.2,34.1c2-0.1,3.8,0.5,5.4,1.8c2.8,2.1,3.1,6.2,0.3,8.4c-3,2.4-6.3,4.4-10.2,5.2c-2.7,0.5-5-0.4-6.8-2.4
	c-1-1-1.1-2.2-0.8-3.6C29.2,37.3,34.5,34.3,40.2,34.1z M37.6,38.1c-2.2,0-4.2,1.9-4.2,4.1c-0.1,2.2,2,4.3,4.1,4.2
	c2.1,0,4.3-2.2,4.3-4.3C41.7,40.1,39.8,38.1,37.6,38.1z"/>
<path fill="#393939" d="M44.6,57.2c0.4-0.1,0.5,0.1,0.6,0.3c0.9,1.4,2.3,1.6,3.7,1.8c0.5,0.1,0.6-0.2,0.6-0.6c0-0.9,0-1.9,0-2.8
	c0-0.8-0.6-0.8-1-1.1c-1.4-0.8-2.9-1.3-3.8-2.8c-1.5-2.6-1.4-2.8,0.8-4.3c2.7-1.9,7.6-1.4,9.9,0.9c0.6,0.6,0.7,1.1,0.4,2
	c-0.7,2.2-2.4,3.2-4.3,4.1c-1,0.5-1.5,1-1.3,2.1c0.2,0.8-0.4,2.3,0.3,2.4c1.3,0.3,2.7-0.2,3.7-1.2c0.3-0.3,0.5-1.1,0.8-0.7
	c0.4,0.4-0.1,1-0.5,1.3c-1.2,1.1-2.8,1.3-4.3,1.4c-1.6,0.1-3.2-0.1-4.7-1C45.1,58.6,44.5,58.1,44.6,57.2z M50.6,54.2
	c1.8-0.3,3.1-1.4,4.3-2.6c0.3-0.3,0.1-0.6-0.3-0.7c-0.5-0.1-0.9,0-1.2,0.4C52.6,52.4,51.7,53.4,50.6,54.2z"/>
<path fill="#FAFAFA" d="M66.5,42.2c0,2.3-1.8,4.1-4.2,4c-2.3,0-4-1.9-4-4.1c0-2.3,1.8-4.1,4.2-4C64.8,38.1,66.5,40,66.5,42.2z
	 M62.3,39.3c-1.6,0-2.9,1.4-2.9,3c0,1.6,1.5,2.9,3.1,2.8c1.5-0.1,2.8-1.4,2.8-2.9C65.2,40.6,63.8,39.2,62.3,39.3z"/>
<path fill="#F7F7F7" d="M37.6,38.1c2.2,0,4.1,2,4.1,4.1c0,2.1-2.1,4.3-4.3,4.3c-2.1,0-4.1-2.1-4.1-4.2C33.4,40,35.4,38.1,37.6,38.1z
	 M40.4,42.3c0-1.6-1.3-2.9-3-2.9c-1.6,0-2.9,1.4-2.9,3c0,1.5,1.4,2.8,3,2.8C39.1,45.2,40.4,43.9,40.4,42.3z"/>
<path fill="#828282" d="M50.6,54.2c1.1-0.8,2-1.8,2.9-2.9c0.3-0.3,0.7-0.5,1.2-0.4c0.4,0.1,0.6,0.4,0.3,0.7
	C53.7,52.9,52.3,53.9,50.6,54.2z"/>
<path fill="#353535" d="M62.3,39.3c1.6,0,3,1.3,3,2.9c0,1.5-1.3,2.9-2.8,2.9c-1.6,0.1-3-1.3-3.1-2.8C59.3,40.7,60.7,39.3,62.3,39.3z
	"/>
<path fill="#353535" d="M40.4,42.3c0,1.6-1.3,3-2.9,3c-1.5,0-2.9-1.4-3-2.8c0-1.6,1.3-3,2.9-3C39.1,39.3,40.4,40.6,40.4,42.3z"/>
</svg>
