<?xml version="1.0" encoding="utf-8"?>
<!-- Generator: Adobe Illustrator 23.0.3, SVG Export Plug-In . SVG Version: 6.00 Build 0)  -->
<svg version="1.2" baseProfile="tiny" id="Слой_1"
	 xmlns="http://www.w3.org/2000/svg" xmlns:xlink="http://www.w3.org/1999/xlink" x="0px" y="0px" viewBox="0 0 100 100"
	 xml:space="preserve">
<path fill="#464646" d="M74.6,78.3c2-4.3,2.9-8.6,2.6-13.2c0-0.8-0.1-1.7-0.3-2.5c-0.1-0.6-0.4-1-1.1-0.9c-3,0.3-5.8-0.2-8.4-1.7
	c-0.5-0.3-0.8-0.1-1.2,0.1c-5.4,3.5-11.4,5-17.8,4.5c-4.5-0.4-8.8-1.7-12.6-4.2c-0.8-0.5-1.4-0.6-2.3-0.1c-2.3,1.3-4.8,1.6-7.4,1.4
	c-1.1-0.1-1.4,0.2-1.6,1.3c-0.7,5.1,0.1,9.9,2.1,14.6c0.1,0.2,0.1,0.3,0.3,0.7c-1.6,0-3.1,0-4.6,0c-0.5,0-0.6-0.4-0.7-0.7
	c-1.5-4-2.2-8.1-2-12.4c0.1-1.4,0.2-2.7,0.5-4c0.1-0.7,0-1-0.6-1.3c-3.2-1.8-5.3-4.4-6-8.1c-0.7-3.9,0.4-7.3,3.2-10.1
	c2.2-2.1,4.8-3.4,7.8-3.8c0.6-0.1,0.9-0.2,1.1-0.9c1.4-5.6,4.7-9.9,9.3-13.2c0.8-0.6,0.8-1,0.3-1.7c-0.3-0.3-0.5-0.6-0.7-1
	c-1.1-2-1-3.2,0.4-4.5c1.3-1.3,3.4-1.5,5-0.6c1.2,0.7,2,1.8,3,2.7c0.7,0.7,1.4,0.9,2.4,0.7c4.6-0.9,9.2-0.7,13.7,0.7
	c0.5,0.2,0.9,0.1,1.3-0.2c1.2-1.1,2.3-2.2,3.5-3.3c1.1-1.1,2.5-1.4,4-1c1.5,0.4,2.4,1.3,2.9,2.8c0.4,1.2-0.4,2.2-0.9,3.1
	c-0.5,0.8-1,1.6-1.6,2.4c-0.3,0.5-0.3,0.8,0.2,1.2c3.7,3,6.3,6.8,7.6,11.5c0.2,0.9,0.6,1.2,1.5,1.4c3.8,0.7,6.8,2.5,9,5.7
	c2.9,4.2,2.4,10.3-1.2,13.8c-1,1-2,1.9-3.3,2.5c-0.5,0.2-0.6,0.5-0.5,1c1,5.5,0.6,10.9-1.3,16.3c-0.3,0.8-0.6,1.2-1.5,1.1
	C77.4,78.2,76.1,78.3,74.6,78.3z M52.2,23.1c-1.9-0.2-3.8,0.1-5.7,0.4c-4,0.7-7.7,2.4-10.7,5.1C33,31.1,31,34.3,30.1,38
	c-0.5,2-1.7,3.2-3.8,3.6c-0.8,0.2-1.7,0.4-2.5,0.6c-2.9,1-5,3-5.6,6c-0.6,3,0.5,5.6,3,7.5c2.8,2.1,6.7,2.8,10.7,0.7
	c0.4-0.2,0.8-0.4,1.2-0.5c2.3-0.6,4.2,0.3,6.1,1.4c4.7,2.8,9.9,3.7,15.3,2.9c3.4-0.5,6.4-1.9,9.4-3.6c1.9-1.2,4-1.2,6-0.2
	c3,1.5,6.1,1.6,9.2,0.2c4.1-2,6-6.9,3.3-11c-1.5-2.3-3.8-3.3-6.4-3.8c-1.9-0.4-3.6-1.1-4.2-3.1c-0.1-0.2-0.2-0.4-0.2-0.7
	c-1.6-6-5.4-10.1-10.9-12.7C57.9,24,55.1,23.4,52.2,23.1z M68.4,19.1c-0.1-0.7-0.5-1.1-1-1.4c-0.7-0.4-1.3-0.1-1.8,0.3
	c-0.6,0.5-1.1,1-1.6,1.6c-0.5,0.5-1.6,0.9-1.5,1.5c0.1,0.6,1.2,0.7,1.8,1.1c1.8,1,1.8,1,2.9-0.8C67.5,20.7,68.2,20,68.4,19.1z
	 M41.6,20.5c-1-0.9-1.8-1.8-2.7-2.6c-0.6-0.5-1.2-0.5-1.9-0.1c-0.5,0.3-1,0.8-0.8,1.5c0.3,1,0.9,1.9,1.6,2.6
	c0.4,0.4,1.2-0.4,1.8-0.6C40.2,21,40.8,20.8,41.6,20.5z"/>
<path fill="#B8B8B8" d="M71.7,38.6c-1.9,0.7-3.5,2-5.3,2.7c-1.8,0.7-3.6,1.3-5.5,1.5c-3.7,0.5-7-1.7-8.4-5.5
	c-1.5-4-1.3-8.1-0.6-12.3c0.1-0.7,0.4-1.3,0.3-2c2.9,0.4,5.7,0.9,8.4,2.2c5.5,2.6,9.3,6.7,10.9,12.7C71.5,38.2,71.6,38.4,71.7,38.6z
	 M59.4,35.1c-1.1,0-2.1,0.9-2.1,2c0,1.1,0.9,2.2,2.1,2.1c1.1,0,2-0.9,2-2.1C61.4,36.1,60.5,35.1,59.4,35.1z"/>
<path fill="#4D4D4D" d="M50.7,56.1c-0.8,0-1.5-0.1-2.3,0c-1,0.1-1.4-0.3-1.4-1.3c0-0.5,0-1,0-1.6c0-1.4,0.3-3-1.5-3.7
	c-0.2-0.1-0.4-0.4-0.6-0.6c-0.4-0.6-0.6-1.2,0-1.7c0.6-0.4,1.1,0,1.4,0.5c0.8,1.2,2.1,1.5,3.4,1.3c0.7-0.1,1.4-0.1,2.1,0
	c1.3,0.2,2.5,0,3.4-1.3c0.4-0.5,0.9-1,1.5-0.5c0.5,0.5,0.3,1.1-0.1,1.6c-0.2,0.3-0.5,0.7-0.8,0.9c-1.4,0.5-1.3,1.7-1.3,2.8
	c0,0.8,0,1.5,0,2.3c0,0.8-0.4,1.2-1.3,1.2C52.4,56,51.6,56,50.7,56.1z M49.9,52.6c0-0.4,0-0.8,0-1.2c0-0.4-0.1-0.6-0.5-0.6
	c-0.4,0-0.5,0.2-0.5,0.6c0,0.8,0,1.5,0,2.3c0,0.4,0.1,0.6,0.6,0.6c0.5,0,0.5-0.3,0.5-0.6C49.8,53.4,49.9,53,49.9,52.6z M52.8,52.6
	c0-0.4,0-0.8,0-1.2c0-0.4-0.1-0.6-0.5-0.6c-0.5,0-0.5,0.2-0.5,0.6c0,0.8,0,1.5,0,2.3c0,0.4,0.1,0.6,0.5,0.6c0.4,0,0.5-0.2,0.5-0.6
	C52.8,53.4,52.8,53,52.8,52.6z"/>
<path fill="#464646" d="M51.1,46.6c-1.8,0-3.5-1-4-2.1c-0.3-0.8-0.3-1.5,0.5-2c0.7-0.5,1.6-0.7,2.3,0c0.6,0.6,1.1,0.7,1.7,0.2
	c0.9-0.8,2-0.7,2.7,0.1c0.6,0.7,0.4,2-0.4,2.7C53,46.1,52,46.5,51.1,46.6z"/>
<path fill="#454545" d="M44.1,37c0,1.1-1.1,2.1-2.2,2.1c-1.1,0-2-1-2-2.1c0-1.2,0.8-2,2-2C43.1,35,44.1,36,44.1,37z"/>
<path fill="#454545" d="M59.4,35.1c1.1,0,2,0.9,2,2.1c0,1.1-0.9,2.1-2,2.1c-1.2,0-2.1-1-2.1-2.1C57.3,36,58.3,35.1,59.4,35.1z"/>
<path fill="#FEFEFE" d="M49.9,52.6c0,0.4,0,0.7,0,1.1c0,0.4,0,0.6-0.5,0.6c-0.4,0-0.6-0.2-0.6-0.6c0-0.8,0-1.5,0-2.3
	c0-0.4,0.1-0.6,0.5-0.6c0.4,0,0.6,0.2,0.5,0.6C49.8,51.8,49.9,52.2,49.9,52.6z"/>
<path fill="#FEFEFE" d="M52.8,52.6c0,0.4,0,0.7,0,1.1c0,0.4-0.1,0.6-0.5,0.6c-0.4,0-0.5-0.2-0.5-0.6c0-0.8,0-1.5,0-2.3
	c0-0.4,0.1-0.6,0.5-0.6c0.4,0,0.6,0.2,0.5,0.6C52.8,51.8,52.8,52.2,52.8,52.6z"/>
</svg>
