<?xml version="1.0" encoding="utf-8"?>
<!-- Generator: Adobe Illustrator 23.0.3, SVG Export Plug-In . SVG Version: 6.00 Build 0)  -->
<svg version="1.2" baseProfile="tiny" id="Слой_1"
	 xmlns="http://www.w3.org/2000/svg" xmlns:xlink="http://www.w3.org/1999/xlink" x="0px" y="0px" viewBox="0 0 100 100"
	 xml:space="preserve">
<path fill="#4B4B4B" d="M57.8,80.9c-5.2,1.5-10.5,1.5-15.8,0.2c-0.9-0.5-1.9-0.8-2.9-0.9c-0.2-0.1-0.3-0.1-0.5-0.2
	c-0.9-0.5-1.7-1.1-2.7-1.4c-0.1,0-0.1-0.1-0.2-0.1c-0.2-0.4-0.6-0.6-1-0.6c-0.1-0.1-0.2-0.2-0.3-0.3c-0.2-0.4-0.5-0.8-1-0.9
	c-0.2-0.2-0.4-0.4-0.6-0.5c0-0.2-0.1-0.4-0.2-0.5c-1.6-1.8-2.4-3.8-2.1-6.2c0.1-0.4-0.1-0.9-0.6-1.1c-0.1,0-0.1-0.1-0.1-0.1
	c0-0.4-0.2-0.6-0.4-0.9c-2.1-3.4-3.5-7.1-4.3-11c-0.2-1.1-0.2-2.2-0.7-3.2c0-0.2,0-0.4-0.1-0.5c0.2-0.5,0.2-0.9-0.2-1.3
	c0-0.3,0-0.6-0.1-0.9c0.2-1.9,0.2-3.8,0-5.6c0-0.2,0-0.5,0.1-0.7c0.4-0.4,0.3-0.9,0.2-1.3c0-0.2,0-0.4,0.1-0.5
	c0.3-0.2,0.3-0.5,0.3-0.8c0.6-3.4,1.5-6.6,3.3-9.6c0.2-0.3,0.2-0.5-0.1-0.8c-2.4-2.1-3.3-4.8-2.9-8c0.2-1.9,0.3-3.7,0.4-5.6
	c0-0.1,0-0.2,0-0.3c0.5-1.1,0.7-2.3,1.3-3.4c0.1-0.1,0.3-0.2,0.4-0.4c0.4-0.1,0.7-0.1,1-0.4c0.2,0,0.3,0,0.5,0
	c1.1,0.5,2.2,0.9,3.2,1.7c0.4,0.3,0.7,0.7,1.2,0.8c0.5,0.5,1,0.9,1.5,1.4c0,0.3,0.2,0.4,0.4,0.5c0.1,0.1,0.2,0.2,0.4,0.4
	c0.5,0.9,1.2,1.7,2,2.3c0.1,0.1,0.2,0.2,0.3,0.3c0,0.2,0.1,0.3,0.3,0.4c0.1,0,0.1,0.1,0.1,0.1c0.2,0.7,0.5,0.7,0.9,0.2
	c0.2-0.2,0.3-0.5,0.4-0.7c0-0.1,0.1-0.1,0.1-0.1c0.9-0.3,1.4-1,2.2-1.4c3.5-1.4,7.1-1.2,10.8-0.9c1.7,0.1,3.2,0.7,4.8,1.2
	c0.1,0,0.1,0.1,0.1,0.1c1.2,1,2.7,1.7,3.8,2.8c0.2,0.2,0.5,0.1,0.7-0.1c0.5-0.8,1.1-1.5,1.5-2.4c0.2-0.2,0.3-0.4,0.5-0.5
	c0.5-0.2,0.9-0.6,1-1.2c0.3-0.3,0.6-0.6,0.9-0.9c0.4-0.1,0.6-0.3,0.7-0.7c0.2-0.2,0.5-0.4,0.7-0.6c0.5-0.1,0.8-0.4,1-0.9
	c0-0.1,0.1-0.1,0.1-0.1c1.1-0.6,2.2-1.3,3.5-1.8c0.2,0,0.3,0,0.5,0c0.3,0.3,0.6,0.4,1,0.4c0.1,0.1,0.3,0.2,0.4,0.4
	c0.6,1.1,0.8,2.3,1.3,3.4c0,0.2,0,0.3,0.1,0.5c-0.1,0.4-0.1,0.7,0.2,1c0,0.1,0,0.2,0,0.3c-0.2,0.7,0,1.4,0,2.1
	c0.1,1.7,0.4,3.4,0.1,5.1c-0.1,1.2-0.8,2.1-1.2,3.2c0,0.1-0.1,0.1-0.1,0.1c-0.4,0.1-0.6,0.4-0.6,0.8c0,0.1-0.1,0.1-0.1,0.1
	c-1.4,1-1.4,1-0.6,1.8c0.1,0.1,0.1,0.2,0.2,0.3c0.3,0.9,0.6,1.8,1,2.7c0.4,0.8,0.4,1.7,1,2.5c0,0.1,0,0.2,0.1,0.3
	c0.2,1.5,0.4,3,0.9,4.4c0,0.1,0,0.2,0,0.4c-0.2,0.5-0.2,0.9,0.2,1.3c0,0.2,0,0.4,0.1,0.5c-0.2,2-0.2,4,0,6c0,0.2,0,0.5-0.1,0.7
	c-0.4,0.4-0.3,0.9-0.2,1.4c0,0.2,0,0.3-0.1,0.5c-0.5,1.2-0.6,2.6-0.9,3.9c-0.4,2-1.3,3.8-1.8,5.7c0,0.1-0.1,0.2-0.1,0.3
	c-0.8,1-1.2,2.1-1.6,3.2c0,0.1,0,0.1-0.1,0.1c-0.6,0.4-0.9,1-1.1,1.7c0,0.1,0,0.1-0.1,0.1c-0.2,0.1-0.3,0.2-0.3,0.4
	c-0.1,0.1-0.2,0.2-0.2,0.3c-0.2,0-0.3,0.2-0.3,0.4l0,0c-0.6,0-0.7,0.3-0.5,0.8c0,0.2,0,0.4,0,0.7c-0.3,0.3-0.3,0.7-0.2,1
	c0,0.1,0,0.2-0.1,0.3c-0.1,0.1-0.2,0.3-0.1,0.4c-0.1,0.3-0.2,0.6-0.3,0.9c-0.8,0.8-1.3,1.8-2,2.7l0,0c-0.6,0.2-0.9,0.6-1.2,1
	c0,0.1-0.1,0.1-0.1,0.1c-0.3,0-0.5,0.2-0.6,0.5c0,0-0.1,0.1-0.1,0.1c-0.2,0-0.4,0.1-0.4,0.3c0,0-0.1,0.1-0.1,0.1
	c-0.5,0.1-1,0.3-1.4,0.8c-0.5,0.3-1,0.6-1.6,0.7C59.6,80.2,58.7,80.4,57.8,80.9z M65.1,26.7c-0.1-0.2-0.2-0.3-0.3-0.1
	c-0.1,0.1,0,0.2,0.2,0.2c0.3,0.7,0.6,1.3,0.9,2c0,0.5,0.1,1,0.5,1.3c0,0.1,0.1,0.1,0.1,0.1c0.1,1.2,0.6,2.4,0.8,3.6
	c0.2,1.3,0.2,1.5-1.3,1.2c-1.6-0.4-3.1-0.8-4.7-1c-1.5-0.3-2.9-0.6-4.4-1c-0.1,0-0.2-0.1-0.3,0.1c-0.1,0.2,0,0.3,0.1,0.4
	c0.6,0.8,1.3,1.6,1.9,2.4c0.8,1.1,1.6,2.2,2.5,3.4c-0.8,0.1-1.3-0.2-1.9-0.4c-0.8-0.3-1.6-0.9-2.5-0.9c0-0.1,0-0.2-0.1-0.2
	c0-0.1,0-0.2-0.2-0.2c-0.8-0.4-1.5-0.7-2.3-1.1c-2.3-1.2-4.5-2.6-6.7-4c-0.2-0.1-0.5-0.4-0.8-0.1c-0.2,0.2,0,0.5,0.1,0.7
	c0.7,1.7,1.4,3.3,2.1,5c0.2,0.4,0.5,0.9,0.4,1.4c-2.4-0.7-7.3-4.1-9.3-6.7c-1.5-1.9-2.6-4-2.7-6.5c0-0.3,0.1-0.6-0.1-0.8
	c-0.3-0.2-0.6,0.1-0.8,0.3c-2.8,1.9-5.1,4.3-6.6,7.3c-5.2,11.1-4.1,21.9,1.4,32.6c0.3,0.6,0.6,0.4,0.9,0c1.6-2,3.6-3.5,5.9-4.5
	c5.6-2.5,11.4-3,17.3-1.9c5.1,0.9,9.7,2.7,12.7,7.4c0.3,0.4,0.5,0.2,0.7-0.1c0.6-0.8,1-1.8,1.5-2.7c2.4-4.9,3.6-10.1,3.7-15.6
	c0.2-0.7-0.1-1.3-0.1-2c-0.1-4.1-1-8.1-2.6-11.9c-0.7-1.7-1.6-3.4-3-4.7C67.4,28.4,66.3,27.5,65.1,26.7z M49.3,80
	c3.3-0.1,6.1-0.5,8.9-1.4c2.8-0.9,5.2-2.4,7-4.7c1.7-2.1,1.6-4.9-0.1-7c-1.6-2.1-3.7-3.4-6.2-4.3c-5.4-2-10.9-2.3-16.5-0.7
	c-3.3,0.9-6.3,2.4-8.5,5.1c-1.2,1.5-1.6,3.3-1,5.2c0.7,2.1,2.2,3.4,3.9,4.5C40.8,79.2,45.2,79.8,49.3,80z M73.2,24.4
	c-0.1-1.3-0.2-2.6-0.3-3.9c-0.2-1.6-0.3-3.1-0.8-4.6c-0.3-1-0.4-1.1-1.3-0.5c-2.6,1.8-4.7,4.1-6.5,6.7c-0.5,0.8-0.4,1.2,0.4,1.6
	c2.2,1.1,4,2.7,5.5,4.6c0.6,0.7,0.9,0.6,1.4,0.1C72.8,27.3,73,25.8,73.2,24.4z M27.1,24c-0.1,1.8,0.6,3.6,1.5,4.5
	c0.5,0.4,0.8,0.6,1.4,0c1.6-2,3.5-3.6,5.7-4.8c0.6-0.3,0.7-0.7,0.3-1.3c-1.7-2.6-3.8-4.9-6.4-6.7c-1.1-0.8-1.2-0.7-1.5,0.5
	C27.4,18.8,27.4,21.5,27.1,24z"/>
<path fill="#7F7F7F" d="M25.4,17.3c-0.1,1.9-0.2,3.8-0.4,5.6c-0.4,3.2,0.5,5.9,2.9,8c0.3,0.3,0.3,0.5,0.1,0.8
	c-1.7,3-2.7,6.2-3.3,9.6c0,0.3,0,0.6-0.3,0.8c0.1-2.2,0.8-4.4,1.5-6.5c0.4-1.2,1-2.5,1.6-3.6c0.2-0.4,0.3-0.6-0.1-1
	c-2.2-2.2-3.3-4.8-2.9-7.9c0.2-1.7,0.4-3.5,0.6-5.2C25.2,17.7,25.2,17.5,25.4,17.3z"/>
<path fill="#7F7F7F" d="M57.1,19c-1.6-0.4-3.1-1-4.8-1.2c-3.6-0.3-7.3-0.4-10.8,0.9c-0.8,0.3-1.3,1.1-2.2,1.4
	c0.8-1.2,2.2-1.6,3.5-2.1c2-0.7,4.1-0.6,6.2-0.7c2-0.1,4,0.2,5.9,0.7C55.7,18.3,56.5,18.4,57.1,19z"/>
<path fill="#7F7F7F" d="M24.5,53.1c0.6,1,0.5,2.1,0.7,3.2c0.8,3.9,2.3,7.6,4.3,11c0.2,0.3,0.4,0.6,0.4,0.9c-1.1-1.2-1.7-2.7-2.4-4.2
	c-1.5-3.3-2.5-6.7-3.1-10.3C24.4,53.5,24.5,53.3,24.5,53.1z"/>
<path fill="#7F7F7F" d="M74.1,29.2c0.4-1.1,1-2,1.2-3.2c0.2-1.7,0-3.4-0.1-5.1c0-0.7-0.2-1.4,0-2.1c0.5,2.6,0.9,5.2,0.3,7.9
	C75.2,27.6,74.9,28.5,74.1,29.2z"/>
<path fill="#7F7F7F" d="M73.2,62.8c0.5-2,1.3-3.8,1.8-5.7c0.3-1.3,0.3-2.7,0.9-3.9c-0.1,2.4-0.8,4.6-1.5,6.8
	C74,60.9,73.8,62,73.2,62.8z"/>
<path fill="#7F7F7F" d="M63.3,19.4c-0.3,0.9-1,1.6-1.5,2.4c-0.2,0.3-0.5,0.3-0.7,0.1c-1.2-1.1-2.6-1.8-3.8-2.8
	c1.2,0.3,2,1.1,2.9,1.8c1.3,0.9,1.2,1,2.2-0.3C62.6,20.1,62.8,19.7,63.3,19.4z"/>
<path fill="#7F7F7F" d="M30.1,68.4c0.5,0.2,0.6,0.6,0.6,1.1c-0.3,2.4,0.5,4.5,2.1,6.2c0.1,0.1,0.2,0.3,0.2,0.5
	c-1.8-1.6-2.7-3.7-2.6-6.1C30.3,69.5,30.3,68.9,30.1,68.4z"/>
<path fill="#7F7F7F" d="M76.1,50.5c-0.2-2-0.2-4,0-6C76.4,46.5,76.4,48.5,76.1,50.5z"/>
<path fill="#7F7F7F" d="M24.2,44.7c0.2,1.9,0.2,3.8,0,5.6C23.9,48.4,23.9,46.6,24.2,44.7z"/>
<path fill="#7F7F7F" d="M33,15.3c-0.5-0.1-0.9-0.5-1.2-0.8c-0.9-0.9-2.1-1.2-3.2-1.7C30.6,12.7,31.7,14.1,33,15.3z"/>
<path fill="#7F7F7F" d="M74.8,37.5c-0.6-0.7-0.6-1.7-1-2.5c-0.4-0.9-0.7-1.8-1-2.7C73.8,34,74.4,35.7,74.8,37.5z"/>
<path fill="#7F7F7F" d="M75.8,42.3c-0.5-1.4-0.8-2.9-0.9-4.4C75.5,39.2,75.7,40.7,75.8,42.3z"/>
<path fill="#7F7F7F" d="M71.6,12.7c-1.2,0.5-2.3,1.1-3.5,1.8C69.1,13.5,70.2,12.7,71.6,12.7z"/>
<path fill="#7F7F7F" d="M74.8,17c-0.5-1.1-0.7-2.4-1.3-3.4C74.6,14.4,74.7,15.7,74.8,17z"/>
<path fill="#7F7F7F" d="M26.7,13.5c-0.6,1.1-0.8,2.3-1.3,3.4C25.6,15.7,25.7,14.5,26.7,13.5z"/>
<path fill="#7F7F7F" d="M66.2,76.3c0.6-0.9,1.2-1.9,2-2.7C67.7,74.7,67.1,75.7,66.2,76.3z"/>
<path fill="#7F7F7F" d="M71.4,66.4c0.4-1.1,0.8-2.3,1.6-3.2C72.7,64.3,72.2,65.4,71.4,66.4z"/>
<path fill="#7F7F7F" d="M37.2,19.8c-0.8-0.7-1.5-1.4-2-2.3C36.1,18.1,36.8,18.9,37.2,19.8z"/>
<path fill="#7F7F7F" d="M36,78.6c1,0.3,1.8,0.8,2.7,1.4C37.7,79.7,36.8,79.3,36,78.6z"/>
<path fill="#7F7F7F" d="M39.2,80.1c1,0.2,2,0.5,2.9,0.9C41,81,40.1,80.7,39.2,80.1z"/>
<path fill="#7F7F7F" d="M57.8,80.9c0.8-0.5,1.8-0.8,2.7-1C59.7,80.5,58.8,80.8,57.8,80.9z"/>
<path fill="#7F7F7F" d="M72.6,32.1c-0.8-0.8-0.8-0.8,0.6-1.8C73.1,30.9,72.1,31.2,72.6,32.1z"/>
<path fill="#7F7F7F" d="M70.3,68.2c0.2-0.7,0.5-1.3,1.1-1.7C71.2,67.2,70.8,67.8,70.3,68.2z"/>
<path fill="#7F7F7F" d="M39.2,20.2c-0.1,0.2-0.2,0.5-0.4,0.7c-0.4,0.5-0.8,0.5-0.9-0.2C38.6,21.2,38.7,20.3,39.2,20.2z"/>
<path fill="#7F7F7F" d="M65,77.4c0.3-0.5,0.6-0.9,1.2-1C65.9,76.8,65.5,77.2,65,77.4z"/>
<path fill="#7F7F7F" d="M64.8,17.7c-0.1,0.6-0.5,0.9-1,1.2C64,18.4,64.4,18,64.8,17.7z"/>
<path fill="#7F7F7F" d="M62.2,79.2c0.3-0.5,0.8-0.7,1.4-0.8C63.2,78.8,62.7,79.1,62.2,79.2z"/>
<path fill="#7F7F7F" d="M24.4,42.6c0.2,0.5,0.2,0.9-0.2,1.3C24.1,43.5,24.2,43,24.4,42.6z"/>
<path fill="#7F7F7F" d="M76,43.9c-0.4-0.4-0.3-0.9-0.2-1.3C76.1,43,76.1,43.5,76,43.9z"/>
<path fill="#7F7F7F" d="M24.2,51.2c0.4,0.4,0.3,0.9,0.2,1.3C24.2,52.1,24.1,51.7,24.2,51.2z"/>
<path fill="#7F7F7F" d="M75.9,52.7c-0.1-0.5-0.2-1,0.2-1.4C76.1,51.7,76.1,52.2,75.9,52.7z"/>
<path fill="#7F7F7F" d="M68.1,14.6c-0.2,0.4-0.5,0.8-1,0.9C67.3,15,67.6,14.8,68.1,14.6z"/>
<path fill="#7F7F7F" d="M33.5,76.7c0.5,0.1,0.8,0.4,1,0.9C34.1,77.4,33.7,77.2,33.5,76.7z"/>
<path fill="#7F7F7F" d="M34.9,77.8c0.4,0.1,0.8,0.2,1,0.6C35.4,78.4,35.1,78.2,34.9,77.8z"/>
<path fill="#7F7F7F" d="M68.9,70.4c-0.1-0.5-0.1-0.8,0.5-0.8C69.2,69.8,69,70.1,68.9,70.4z"/>
<path fill="#7F7F7F" d="M68.7,72.1c-0.1-0.4-0.1-0.7,0.2-1C69,71.4,68.9,71.8,68.7,72.1z"/>
<path fill="#7F7F7F" d="M66.4,16.1c-0.1,0.4-0.3,0.6-0.7,0.7C65.8,16.4,66,16.2,66.4,16.1z"/>
<path fill="#7F7F7F" d="M73.1,13.2c-0.4-0.1-0.7-0.1-1-0.4C72.6,12.7,72.9,12.8,73.1,13.2z"/>
<path fill="#7F7F7F" d="M28.1,12.8c-0.3,0.3-0.6,0.4-1,0.4C27.4,12.8,27.7,12.7,28.1,12.8z"/>
<path fill="#7F7F7F" d="M73.3,30.2c0-0.4,0.3-0.7,0.6-0.8C73.9,29.8,73.7,30,73.3,30.2z"/>
<path fill="#7F7F7F" d="M75,18.5c-0.3-0.3-0.3-0.7-0.2-1C75.1,17.8,75.2,18.1,75,18.5z"/>
<path fill="#7F7F7F" d="M64.2,78c0.1-0.3,0.3-0.5,0.6-0.5C64.7,77.8,64.5,77.9,64.2,78z"/>
<path fill="#7F7F7F" d="M34.9,17.1c-0.3-0.1-0.4-0.2-0.4-0.5C34.7,16.7,34.9,16.9,34.9,17.1z"/>
<path fill="#7F7F7F" d="M37.8,20.6c-0.2-0.1-0.3-0.2-0.3-0.4C37.7,20.2,37.8,20.4,37.8,20.6z"/>
<path fill="#7F7F7F" d="M69.9,68.8c0-0.2,0.1-0.3,0.3-0.4C70.2,68.6,70.1,68.7,69.9,68.8z"/>
<path fill="#7F7F7F" d="M69.4,69.6c0-0.2,0.1-0.4,0.3-0.4C69.7,69.4,69.6,69.5,69.4,69.6z"/>
<path fill="#7F7F7F" d="M63.7,78.3c0.1-0.2,0.2-0.3,0.4-0.3C64,78.2,63.9,78.3,63.7,78.3z"/>
<path fill="#7F7F7F" d="M68.5,72.8c-0.1-0.2,0-0.3,0.1-0.4C68.7,72.6,68.6,72.7,68.5,72.8z"/>
<path fill="#FBFBFB" d="M56.6,37.8c0,0.1,0,0.2,0.1,0.2c-0.4,0.2-0.6,0.6-0.7,0.9c-0.4,1.1-0.8,2.1-1.2,3.2c-0.4,1.1-0.3,2.2,0,3.2
	c1.1,3.7,4.1,6,8,6.2c3.7,0.2,7-1,10.1-2.9c0.3-0.2,0.5-0.4,0.9-0.4c-0.1,5.5-1.4,10.7-3.7,15.6c-0.4,0.9-0.9,1.9-1.5,2.7
	c-0.2,0.3-0.4,0.5-0.7,0.1c-3-4.7-7.6-6.4-12.7-7.4c-5.9-1.1-11.8-0.6-17.3,1.9c-2.3,1-4.3,2.5-5.9,4.5c-0.3,0.4-0.5,0.6-0.9,0
	c-5.4-10.7-6.6-21.5-1.4-32.6c1.4-3.1,3.7-5.5,6.6-7.3c0.2-0.2,0.5-0.5,0.8-0.3c0.3,0.2,0.1,0.5,0.1,0.8c0.1,2.5,1.2,4.6,2.7,6.5
	c2,2.6,6.9,6,9.3,6.7c0-0.5-0.3-1-0.4-1.4c-0.7-1.7-1.4-3.3-2.1-5c-0.1-0.2-0.3-0.5-0.1-0.7c0.2-0.2,0.5,0,0.8,0.1
	c2.2,1.4,4.4,2.8,6.7,4c0.7,0.4,1.5,0.8,2.3,1.1C56.4,37.8,56.5,37.8,56.6,37.8z M35.6,38c-1.1,0-2.2,0.2-3.2,0.6
	c-2.4,1.1-4.4,2.7-5,5.4c-0.7,3.2,1.6,7.3,4.6,8.7c1.1,0.5,1.8,0.4,2.6-0.5c1.2-1.4,2.8-2.1,4.6-2.3c1.5-0.2,3,0,4.4-0.4
	c1.8-0.4,2.8-1.5,3-3.3c0.1-1.1-0.3-2.1-1-2.9C43,40.2,39.8,38.2,35.6,38z"/>
<path fill="#FBFBFB" d="M49.3,80c-4.1-0.2-8.4-0.9-12.2-3.4c-1.7-1.1-3.2-2.5-3.9-4.5c-0.7-1.9-0.2-3.7,1-5.2
	c2.2-2.7,5.1-4.2,8.5-5.1c5.6-1.5,11.1-1.2,16.5,0.7c2.4,0.9,4.5,2.3,6.2,4.3c1.7,2.1,1.7,4.9,0.1,7c-1.8,2.3-4.3,3.8-7,4.7
	C55.4,79.5,52.5,80,49.3,80z M44.9,70.7c1,0,1.8-0.6,1.8-1.4c0-0.8-0.7-1.4-1.6-1.5c-0.9,0-1.7,0.6-1.7,1.4
	C43.3,70,44,70.7,44.9,70.7z M54.5,70.7c0.9,0,1.7-0.7,1.7-1.5c0-0.8-0.8-1.5-1.8-1.4c-0.9,0-1.6,0.7-1.6,1.5
	C52.9,70.1,53.7,70.7,54.5,70.7z"/>
<path fill="#A2A2A2" d="M73.8,48.3c-0.4,0-0.6,0.2-0.9,0.4c-3.1,1.9-6.4,3.1-10.1,2.9c-3.9-0.2-6.9-2.5-8-6.2
	c-0.3-1.1-0.4-2.2,0-3.2c0.4-1.1,0.8-2.1,1.2-3.2c0.1-0.4,0.3-0.8,0.7-0.9c0.9,0.1,1.7,0.6,2.5,0.9c0.6,0.2,1.1,0.5,1.9,0.4
	c-0.9-1.2-1.7-2.3-2.5-3.4c0.9-0.7,2-0.9,2.7-1.8c1.6,0.2,3.2,0.6,4.7,1c1.5,0.3,1.5,0.1,1.3-1.2c-0.2-1.2-0.7-2.4-0.8-3.6
	c0.5-0.2,1.1-0.4,1.6-0.5c1.3,1.4,2.3,3,3,4.7c1.6,3.8,2.5,7.8,2.6,11.9C73.8,47,74,47.6,73.8,48.3z M65.9,44.4
	c0-0.7-0.2-1.3-0.6-1.9c-1.2-1.7-3.7-2.3-5.7-1.5c-2.6,1.2-3.2,3.9-1.3,5.7c1.5,1.3,3.2,1.6,5,0.9C64.7,47.1,65.8,46,65.9,44.4z"/>
<path fill="#F6F6F6" d="M73.2,24.4c-0.1,1.4-0.4,2.9-1.5,4.1c-0.5,0.5-0.9,0.6-1.4-0.1c-1.5-1.9-3.3-3.5-5.5-4.6
	c-0.8-0.4-1-0.8-0.4-1.6c1.8-2.6,3.9-4.9,6.5-6.7c0.8-0.6,0.9-0.5,1.3,0.5c0.5,1.5,0.6,3.1,0.8,4.6C73,21.8,73,23.1,73.2,24.4z"/>
<path fill="#F7F7F7" d="M27.1,24c0.3-2.5,0.3-5.3,1-7.9c0.3-1.2,0.5-1.3,1.5-0.5c2.5,1.8,4.7,4.1,6.4,6.7c0.4,0.6,0.3,1-0.3,1.3
	c-2.2,1.2-4.1,2.8-5.7,4.8c-0.5,0.7-0.9,0.5-1.4,0C27.7,27.6,27.1,25.8,27.1,24z"/>
<path fill="#F3F3F3" d="M61.3,34.1c-0.7,0.9-1.8,1.1-2.7,1.8c-0.6-0.8-1.3-1.6-1.9-2.4c0.1-0.1,0.1-0.3,0.2-0.4
	C58.3,33.4,59.8,33.8,61.3,34.1z"/>
<path fill="#F3F3F3" d="M68.1,29.7c-0.5,0.2-1.1,0.4-1.6,0.5c-0.1,0-0.1,0-0.1-0.1c0-0.5,0-1-0.5-1.3c-0.3-0.7-0.6-1.3-0.9-2
	c0,0,0.1-0.1,0.1-0.1C66.3,27.5,67.4,28.4,68.1,29.7z"/>
<path fill="#BFBFBF" d="M65.8,28.8c0.5,0.3,0.5,0.8,0.5,1.3C65.9,29.8,65.8,29.3,65.8,28.8z"/>
<path fill="#BFBFBF" d="M64.9,26.8c-0.2,0-0.2-0.1-0.2-0.2c0.1-0.2,0.3-0.1,0.3,0.1C65,26.7,65,26.8,64.9,26.8z"/>
<path fill="#A2A2A2" d="M56.9,33.1c-0.1,0.1-0.1,0.3-0.2,0.4c-0.2-0.1-0.2-0.2-0.1-0.4C56.6,33,56.7,33.1,56.9,33.1z"/>
<path fill="#A2A2A2" d="M56.6,37.8c-0.1,0-0.2,0-0.2-0.2C56.5,37.6,56.6,37.7,56.6,37.8z"/>
<path fill="#A4A4A4" d="M35.6,38c4.2,0.2,7.4,2.2,10,5.3c0.7,0.8,1,1.8,1,2.9c-0.1,1.8-1.2,2.9-3,3.3c-1.5,0.3-2.9,0.2-4.4,0.4
	c-1.8,0.3-3.4,0.9-4.6,2.3c-0.8,0.9-1.5,1-2.6,0.5c-3-1.4-5.3-5.5-4.6-8.7c0.6-2.7,2.6-4.3,5-5.4C33.4,38.2,34.5,38,35.6,38z
	 M37.4,41.2c-1.1,0-2.1,0.4-3,1.1c-1.6,1.3-1.7,3.4-0.3,4.9c1.6,1.7,4.6,1.8,6.3,0.3c1.8-1.5,1.8-3.7,0-5.2
	C39.6,41.6,38.6,41.2,37.4,41.2z"/>
<path fill="#505050" d="M44.9,70.7c-0.9,0-1.7-0.7-1.6-1.5c0.1-0.7,0.9-1.4,1.7-1.4c0.9,0,1.6,0.7,1.6,1.5
	C46.7,70.2,45.9,70.8,44.9,70.7z"/>
<path fill="#505050" d="M54.5,70.7c-0.9,0-1.7-0.6-1.7-1.4c0-0.8,0.7-1.5,1.6-1.5c0.9,0,1.8,0.6,1.8,1.4
	C56.2,70,55.4,70.7,54.5,70.7z"/>
<path fill="#F3F3F3" d="M65.9,44.4c-0.1,1.7-1.2,2.7-2.6,3.3c-1.8,0.7-3.5,0.4-5-0.9c-1.9-1.8-1.3-4.5,1.3-5.7
	c1.9-0.9,4.4-0.2,5.7,1.5C65.7,43.1,65.9,43.7,65.9,44.4z M61.5,42.1c-1.5,0-2.7,1-2.7,2.2c0,1.3,1.1,2.3,2.6,2.4
	c1.4,0,2.7-1.1,2.7-2.3C64.1,43.1,63,42.1,61.5,42.1z"/>
<path fill="#F4F4F4" d="M37.4,41.2c1.1,0.1,2.2,0.4,3,1.1c1.7,1.5,1.7,3.7,0,5.2c-1.7,1.5-4.8,1.4-6.3-0.3c-1.4-1.5-1.3-3.6,0.3-4.9
	C35.3,41.6,36.3,41.2,37.4,41.2z M37.6,47.2c1.5,0,2.7-0.9,2.7-2.3c0-1.3-1.1-2.2-2.6-2.2c-1.5,0-2.6,0.9-2.6,2.2
	C35,46.3,36.1,47.2,37.6,47.2z"/>
<path fill="#4B4B4B" d="M61.5,42.1c1.5,0,2.6,1,2.6,2.2c0,1.2-1.3,2.3-2.7,2.3c-1.5,0-2.6-1.1-2.6-2.4C58.8,43.1,60,42.1,61.5,42.1z
	"/>
<path fill="#494949" d="M37.6,47.2c-1.5,0-2.6-0.9-2.6-2.2c0-1.3,1.1-2.2,2.6-2.2c1.5,0,2.6,0.9,2.6,2.2
	C40.3,46.2,39.1,47.2,37.6,47.2z"/>
</svg>
