<?xml version="1.0" encoding="utf-8"?>
<!-- Generator: Adobe Illustrator 23.0.3, SVG Export Plug-In . SVG Version: 6.00 Build 0)  -->
<svg version="1.2" baseProfile="tiny" id="Слой_1"
	 xmlns="http://www.w3.org/2000/svg" xmlns:xlink="http://www.w3.org/1999/xlink" x="0px" y="0px" viewBox="0 0 100 100"
	 xml:space="preserve">
<path fill="#4C4C4C" d="M69.4,74.7c2.7,1.6,4.8,3.6,6.3,6.3c0.5,0.9,0.7,1.7-0.3,2.3c-1.1,0.6-1.7-0.2-2.1-1
	c-1.2-2.1-2.8-3.6-4.8-4.9c-0.9-0.6-1.5-0.4-2.2,0.3c-1.8,1.9-3.5,3.8-5.4,5.6c-3.3,3.1-7.2,3.8-11.6,3.2c-4.2-0.6-6.8-3.5-9.4-6.3
	c-0.9-1-1.8-1.8-2.6-2.8c-0.5-0.6-1-0.5-1.6-0.2c-2.1,1.2-3.8,2.8-5.1,5c-0.7,1.2-1.4,1.6-2.1,1.1c-0.7-0.5-0.9-1.1-0.4-2
	c1.4-2.6,3.3-4.6,5.8-6.2c0.2-0.1,0.4-0.3,0.7-0.4c-0.7-0.5-1.3-1-1.9-1.5c-0.4-0.3-0.9-0.3-1.4-0.1c-2,0.8-3.8,2-5.4,3.4
	c-0.7,0.6-1.5,0.9-2.2,0.2c-0.8-0.8-0.3-1.5,0.4-2.2c1.5-1.3,3.2-2.4,5-3.4c-2.5-1.2-4.7-2.5-6.7-4.3c-2-1.8-3.5-4-3.8-6.6
	c-0.5-3.3,0.2-6.5,1.9-9.4c1.5-2.5,3.5-4.4,6.3-5.8c-1.7-0.3-3.1-0.7-4.4-1.4C17,41,13.3,36.9,11.6,31c-0.9-3.2-1.1-6.4-0.3-9.4
	c1.8-7.3,6.3-12.4,13.8-14.5c6.3-1.7,12.1-0.6,17.3,3.4c3.3,2.6,5.6,6,6.7,10.1c0.2,0.8,0.4,1.4,1.5,1.2c1-0.2,2.2-0.1,3.2,0
	c0.9,0.1,1.1-0.2,1.2-0.9c1.4-5.5,4.7-9.5,9.6-12.2c3.7-2,7.6-2.6,11.7-2.1c4.5,0.5,8.2,2.4,11.3,5.5c2.4,2.4,4,5.2,4.9,8.4
	c0.9,3.2,1,6.3,0.3,9.4c-0.8,3.8-2.7,7.1-5.5,9.8c-2.5,2.4-5.4,3.9-8.6,4.9c-0.4,0.1-0.8,0.1-1.6,0.2c5.5,3.2,8.6,7.7,8.3,13.9
	C85.2,65.5,80.2,68.4,75,71c1.8,1,3.6,2.1,5.1,3.5c0.7,0.6,1,1.4,0.3,2.1c-0.6,0.6-1.4,0.5-2.1-0.2c-1.5-1.4-3.3-2.4-5.2-3.3
	c-0.8-0.4-1.5-0.3-2.2,0.3C70.4,73.8,70,74.2,69.4,74.7z M40,24.7c1.9-1.1,4-1.8,6.1-2.3c0.5-0.1,0.5-0.4,0.4-0.9
	c-0.2-0.7-0.4-1.3-0.7-2c-2.6-6.3-7.4-9.7-13.9-10.5c-4.9-0.6-9.3,1.1-13,4.5C13.7,18.4,12,26,15,32.6c2.4,5.3,6.6,8.4,12.2,9.7
	c0.5,0.1,0.6,0,0.8-0.5c0.4-1.4,0.5-2.9,1.1-4.2c0.4-0.9,1.1-1.6,1-2.6c0.9-0.8,1.3-2,2-2.9C34.3,29.1,37,26.8,40,24.7z M74.3,35.6
	c0.1,0.3,0.1,0.5,0.2,0.8c0.7,1.3,1.2,2.6,1.3,4.1c0,0.6,0.1,1.3,0.5,1.7c0.5,0.5,1.1-0.3,1.8-0.3c0.2,0,0.4,0,0.6-0.1
	C87.4,39.1,92.4,30,90,21.4c-2.5-9-11.6-14.3-20.4-11.8c-6,1.7-9.9,5.6-11.9,11.5c-0.3,0.9,0,1.4,0.9,1.6c2.1,0.3,3.9,1.4,5.8,2.4
	c1.4,0.7,2.7,1.7,3.8,2.8C70.7,30.1,72.7,32.7,74.3,35.6z M68.4,71.7c-1.7-0.3-3.3-0.3-4.9-0.1c-0.8,0.1-1.5,0-1.7-1
	c-0.1-1.1,0.4-1.5,1.4-1.7c0.2,0,0.4-0.1,0.6-0.1c2.3,0,4.6-0.1,6.9,0.6c0.4,0.2,1,0.2,1.4-0.1c2-1.2,4.3-1.9,6.2-3.4
	c4.2-3.1,5.7-6.8,3.9-12c-1.2-3.4-3.6-5.7-7-7c-0.9-0.3-1.3-0.9-1.3-1.9c0-1.9-0.4-3.8-1.1-5.6c-2.8-7.6-8-12.7-16.1-14.6
	c-4.1-1-8.2-0.7-12,0.9c-8.6,3.6-13.2,10.3-14.2,19.5c-0.1,0.9-0.4,1.4-1.2,1.7c-3.1,1.2-5.3,3.2-6.7,6.2c-1.7,3.7-1.6,8,1.6,11.1
	c2.1,2,4.7,3.3,7.2,4.6c1,0.5,1.9,0.6,3,0.3c2.2-0.6,4.5-0.6,6.8-0.3c1,0.1,1.5,0.7,1.3,1.7c-0.1,1-0.9,1-1.6,1
	c-1.4-0.1-2.8-0.2-4.2,0c-0.3,0-0.8-0.1-0.6,0.4c0.2,0.6,1.6,1.3,2.3,1.1c0.9-0.2,1.8-0.4,2.7-0.5c0.7-0.1,1.3,0.1,1.4,1
	c0.1,0.8,0,1.4-1,1.6c-0.5,0.1-1.1,0.2-1.5,0.6c1.6,1.8,3.3,3.5,4.8,5.2c2.9,3.2,8.8,3.7,12.4,1.7c3-1.7,4.8-4.7,7.4-7
	c-0.7-0.2-1.2-0.5-1.7-0.6c-1-0.2-1.1-0.9-1-1.7c0.1-0.8,0.8-1,1.4-0.9c0.7,0.1,1.3,0.2,2,0.4C67,73.5,67.1,73.4,68.4,71.7z"/>
<path fill="#A0A0A0" d="M30.2,34.9c-2.3-1.1-3.5-3.9-3.2-7c0.3-2.6,2.7-5.3,5.3-5.9c3-0.7,6.1,0.4,7.7,2.7c-3,2-5.7,4.3-7.8,7.3
	C31.5,33,31.1,34.1,30.2,34.9z"/>
<path fill="#A0A0A0" d="M64.4,25.1c2.3-2.1,4.9-2.5,7.7-1.4c2.9,1.2,4.4,3.6,4.5,6.6c0.1,2.1-0.7,4-2.4,5.4c-1.6-2.9-3.5-5.6-6-7.8
	C67.1,26.8,65.8,25.8,64.4,25.1z"/>
<path fill="#4B4B4B" d="M52.4,76.6c-2.7,0-5.6-2-6.4-4.3c-0.4-1.1-0.1-2.1,1.1-2.7c2.1-1.2,4.5-1.4,6.8-1.1c1.2,0.2,2.4,0.4,3.4,1.1
	c1.1,0.8,1.5,1.7,0.8,3C56.8,75,54.8,76.4,52.4,76.6z M52.1,70.2c-1.2-0.2-2.3,0.1-3.4,0.5c-1.2,0.4-1.3,1-0.5,1.9
	c2.5,2.9,5.5,2.8,7.9-0.1c0.7-0.9,0.6-1.5-0.6-1.8C54.4,70.4,53.2,70.1,52.1,70.2z"/>
<path fill="#474747" d="M43.7,51.3c0,2-1.6,3.6-3.6,3.5c-2,0-3.7-1.7-3.6-3.7c0.1-1.9,1.7-3.5,3.7-3.5
	C42.2,47.7,43.7,49.3,43.7,51.3z"/>
<path fill="#474747" d="M60.5,51.2c0-2,1.6-3.6,3.5-3.6c2,0,3.6,1.6,3.6,3.5c0,2-1.6,3.7-3.6,3.7C62,54.8,60.5,53.2,60.5,51.2z"/>
<path fill="#A1A1A1" d="M75.2,60.8c-0.8-0.1-2,0.1-2.6-1c-0.7-1.2,0-2.2,0.6-3.1c0.8-1.3,1.8-2.6,3.6-2.6c1.5-0.1,2.7,0.8,3.1,2.2
	c0.4,1.3-0.4,3.2-1.5,3.9C77.6,60.6,76.7,60.9,75.2,60.8z"/>
<path fill="#A2A2A2" d="M30,61.6c-1.1-0.1-2.5-0.5-3.7-1.3c-1.1-0.7-1.6-2.1-1.2-3.2c0.4-1.2,1.4-1.8,2.8-1.8
	c2.1,0.1,4.2,1.8,4.8,3.8C33.1,60.5,32.1,61.7,30,61.6z"/>
<path fill="#9E9E9E" d="M52.1,70.2c1.2-0.2,2.3,0.1,3.4,0.5c1.1,0.3,1.3,0.9,0.6,1.8c-2.3,2.9-5.4,3-7.9,0.1c-0.8-1-0.7-1.5,0.5-1.9
	C49.8,70.4,50.9,70.1,52.1,70.2z"/>
</svg>
